<svg width="368" height="369" viewBox="0 0 368 369" fill="none" xmlns="http://www.w3.org/2000/svg">
<path d="M283.455 330.275H68.9201C66.8605 330.275 64.821 329.87 62.9181 329.082C61.0152 328.294 59.2862 327.139 57.8298 325.682C56.3734 324.226 55.2181 322.497 54.4298 320.594C53.6416 318.691 53.2359 316.652 53.2359 314.592V174.897C53.236 170.889 54.7709 167.033 57.5253 164.121C60.2797 161.209 64.0446 159.462 68.0467 159.239L290.859 146.82C300.188 146.3 307.899 154.001 307.39 163.331L299.112 315.443C298.894 319.449 297.15 323.219 294.238 325.978C291.325 328.737 287.466 330.275 283.455 330.275Z" fill="#FA541C"/>
<path opacity="0.48" d="M181.199 245.982L298.47 148.315C296.101 147.184 293.484 146.669 290.862 146.82L68.05 159.239C64.3592 159.442 60.8595 160.946 58.1724 163.484L145.939 245.109C155.467 253.97 171.141 254.357 181.199 245.982Z" fill="#B3200E"/>
<path d="M164.893 241.141C158.884 241.136 153.085 238.929 148.594 234.937L115.533 205.744C115.077 205.33 114.802 204.753 114.768 204.138C114.734 203.523 114.944 202.92 115.351 202.458C115.759 201.996 116.331 201.713 116.946 201.67C117.56 201.628 118.166 201.828 118.634 202.229L151.703 231.424C155.085 234.432 159.392 236.195 163.913 236.421C168.433 236.648 172.895 235.323 176.56 232.667L193.696 220.351C196.203 218.598 198.918 222.311 196.431 224.158C188.316 229.295 175.24 242.188 164.893 241.141Z" fill="#FDAB76"/>
<path d="M104.774 195.469C103.417 195.725 99.7829 191.604 98.7713 190.952C96.4978 188.876 99.5288 185.437 101.874 187.438L106.326 191.368C107.958 192.709 106.847 195.546 104.774 195.469Z" fill="#FDAB76"/>
<path d="M137.114 100.347L128.164 148.268L156.068 123.735L137.114 100.347Z" fill="#FDAB76"/>
<path d="M340.211 114.799L146.268 124.212C145.087 124.269 143.907 124.086 142.8 123.674C141.692 123.261 140.68 122.628 139.824 121.813C138.968 120.998 138.287 120.018 137.821 118.931C137.356 117.845 137.116 116.675 137.115 115.494V35.7043C137.115 31.5327 138.739 27.525 141.643 24.5301C144.547 21.5352 148.503 19.7885 152.673 19.6599L327.47 14.2505C340.482 14.2505 351.032 24.8029 351.032 37.8188V103.441C351.031 106.361 349.907 109.17 347.893 111.284C345.878 113.398 343.128 114.657 340.211 114.799Z" fill="#FDAB76"/>
<path d="M152.067 120.792C145.764 120.915 140.165 115.338 140.308 109.015V37.1021C140.308 28.7443 147.012 21.9952 155.57 21.7361L324.808 16.6265C337.514 16.6265 347.84 26.7076 347.84 39.0993V101.097C347.84 106.948 343.152 111.753 337.165 112.037C336.588 112.053 152.599 120.807 152.067 120.792ZM324.814 17.036L155.582 22.1457C147.247 22.3924 140.719 28.9663 140.719 37.1008V109.015C140.72 110.552 141.032 112.074 141.638 113.487C142.243 114.9 143.129 116.176 144.242 117.237C145.355 118.298 146.672 119.122 148.112 119.66C149.553 120.197 151.087 120.437 152.623 120.364L337.145 111.625C342.911 111.352 347.429 106.727 347.429 101.096V39.0993C347.429 26.9346 337.285 17.036 324.814 17.036Z" fill="#FEE9D1"/>
<path d="M167.857 52.9466C168.608 53.0046 169.036 53.4401 169.531 54.0174L191.145 79.6039C190.712 77.9916 190.116 54.406 189.964 52.1102L196.417 51.8771L197.835 91.2492C196.799 91.1987 193.49 91.6329 192.597 91.1654C192.21 90.9976 191.825 90.6842 191.446 90.2253L169.917 64.7462C170.272 65.9379 170.946 90.2512 171.069 92.2127L164.616 92.4458L163.199 53.0737C163.802 53.0663 167.347 52.885 167.857 52.9466Z" fill="#FEE9D1"/>
<path d="M229.199 50.6978L229.409 56.5242L211.956 57.1521L212.349 68.0708L226.099 67.5774L226.303 73.2138L212.552 73.7072L212.953 84.8431L230.406 84.2152L230.617 90.0687L205.785 90.9631L204.368 51.5922L229.199 50.6978Z" fill="#FEE9D1"/>
<path d="M231.894 50.6003C233.139 50.7595 238.667 49.9132 239.656 50.7706C240.086 51.0459 240.406 51.4639 240.558 51.9511C241.38 54.7724 248.904 76.906 249.095 79.2893C249.193 77.0108 256.163 54.1235 256.867 51.3639C257.439 49.4025 259.727 49.5727 261.38 49.5394C262.561 49.4827 263.5 50.0403 263.891 51.111C264.772 53.7275 273.266 76.0881 273.592 78.2161C273.592 76.1633 279.555 53.1058 280.119 50.5275C280.243 50.0481 280.526 49.6247 280.921 49.326C281.813 48.3391 287.036 48.7968 288.228 48.5723L277.42 88.3835L270.804 88.6229L261.231 62.031C261.108 61.6905 260.984 61.3217 260.85 60.9269C260.715 60.5322 260.59 60.109 260.464 59.6588C260.429 60.5223 252.524 87.7852 252.153 89.294L245.536 89.532L231.894 50.6003Z" fill="#FEE9D1"/>
<path d="M313.89 54.8193C312.328 58.1389 309.013 52.9577 304.267 53.5289C301.888 53.6029 299.537 54.4566 298.656 56.6894C298.148 58.0069 298.204 59.9511 299.206 60.9911C301.303 63.2005 304.778 63.5595 307.65 64.5439C311.041 65.5715 314.583 67.0543 316.178 70.4653C318.067 74.5979 317.077 80.4859 313.849 83.7883C307.966 89.896 296.735 88.782 290.78 83.1604C294.563 75.5774 294.297 79.2523 300.384 81.4334C302.728 82.2747 307.037 81.9539 308.695 80.2071C310.348 78.8391 310.908 75.1801 309.391 73.3791C306.414 70.2851 301.343 70.5997 297.595 68.7061C292.338 66.7323 290.234 60.3175 292.211 55.1042C295.594 46.1223 309.047 45.4968 315.561 51.2924L313.89 54.8193Z" fill="#FEE9D1"/>
<path d="M74.247 206.818C74.1396 207.022 67.3597 212.011 67.3597 212.011C69.1805 225.281 78.4622 234.462 91.0612 223.122C91.0612 223.122 98.5739 224.908 102.57 209.269C103.486 205.681 98.1952 205.377 91.81 206.039C83.5743 206.887 74.247 206.818 74.247 206.818Z" fill="#063963"/>
<path d="M57.1051 248.569C68.2546 241.339 67.66 244.498 80.9769 245.453C106.44 239.754 118.548 248.521 125.349 273.17C120.354 278.298 114.067 280.572 114.067 280.572L112.907 327.648L85.0688 341.9L53.2969 325.944L54.4343 279.939C54.4343 279.939 44.3458 275.24 43.6056 273.532C42.8655 271.823 48.2033 254.689 57.1051 248.569Z" fill="#22B8CF"/>
<path d="M44.0743 273.325C44.0743 273.325 30.5551 310.812 61.3856 326.215C67.7918 325.369 65.3245 314.733 65.3245 314.733C65.3245 314.733 51.9275 311.772 55.9491 280.5C52.2482 277.452 44.0743 273.325 44.0743 273.325Z" fill="#FDBAB9"/>
<path d="M124.7 273.325C124.7 273.325 134.003 312.453 107.392 326.215C100.991 325.364 103.452 314.733 103.452 314.733C103.452 314.733 114.25 309.416 112.828 280.5C116.521 277.452 124.7 273.325 124.7 273.325Z" fill="#FDBAB9"/>
<path d="M111.289 287.623H55.6191C54.1352 287.623 52.9323 288.825 52.9323 290.309V326.161C52.9323 327.645 54.1352 328.848 55.6191 328.848H111.289C112.773 328.848 113.975 327.645 113.975 326.161V290.309C113.975 288.825 112.773 287.623 111.289 287.623Z" fill="#116E95"/>
<path d="M141.437 341.245C134.64 339.384 117.677 340.339 117.613 340.328C116.806 341.337 116.088 349.595 115.868 350.946C116.157 350.771 133.823 354.628 140.951 353.393C146.638 351.624 147.312 342.896 141.437 341.245Z" fill="#063963"/>
<path d="M112.978 339.83C115.26 339.88 118.035 339.817 119.552 341.933C121.324 344.03 121.569 347.756 119.481 349.738C117.857 351.686 114.219 350.681 112.099 350.655L112.978 339.83Z" fill="#FDBAB9"/>
<path d="M44.7986 341.986L44.1818 340.187C44.0905 340.21 27.206 338.707 20.3434 340.372C14.4319 341.844 14.8871 350.588 20.526 352.532C27.5058 353.982 45.524 350.674 45.6597 350.855L44.7986 341.986Z" fill="#063963"/>
<path opacity="0.48" d="M44.7986 341.986L44.1818 340.187C44.0905 340.21 27.206 338.707 20.3434 340.372C14.4319 341.844 14.8871 350.588 20.526 352.532C27.5058 353.982 45.524 350.674 45.6597 350.855L44.7986 341.986Z" fill="black"/>
<path d="M48.8346 339.832C46.5561 339.812 43.7768 339.663 42.2101 341.733C40.3806 343.78 40.0537 347.499 42.0867 349.537C43.6596 351.532 47.3197 350.647 49.4428 350.68L48.8346 339.832Z" fill="#FDBAB9"/>
<path d="M142.7 313.357C139.532 306.065 131.784 304.882 125.183 308.291C125.068 308.441 83.3014 329.848 46.4669 339.23C47.7214 343.353 48.3457 347.768 48.1446 352.074C76.3944 350.624 107.046 341.203 133.388 332.925C141.561 330.29 146.212 321.439 142.7 313.357Z" fill="#063963"/>
<path opacity="0.48" d="M142.7 313.357C139.532 306.065 131.784 304.882 125.183 308.291C125.068 308.441 83.3014 329.848 46.4669 339.23C47.7214 343.353 48.3457 347.768 48.1446 352.074C76.3944 350.624 107.046 341.203 133.388 332.925C141.561 330.29 146.212 321.439 142.7 313.357Z" fill="black"/>
<path d="M113.178 350.297C113.009 346.016 114.042 342.155 115.713 338.441C88.7648 329.983 62.3136 318.461 42.1711 307.303C24.2836 297.889 15.5249 326.155 33.5678 331.554C66.2081 344.853 79.4683 347.801 113.223 351.184C113.206 350.888 113.19 350.592 113.178 350.297Z" fill="#063963"/>
<path d="M67.4509 243.757C70.3598 258.855 96.811 260.217 99.071 243.717L89.9842 241.773L89.2242 231.649L75.557 232.66L75.3041 242.283L67.4509 243.757Z" fill="#FDBAB9"/>
<path d="M78.6949 205.026C60.4139 237.322 95.7411 253.719 97.0105 214.01C93.824 205.091 91.7269 206.15 91.7269 206.15L78.6949 205.026Z" fill="#FDBAB9"/>
<path d="M100.176 202.706C106.68 204.493 101.121 218.598 91.3302 215.262C81.5389 211.927 77.69 211.976 76.1641 214.664C74.6381 217.352 74.3136 226.902 71.0001 222.182C67.3696 217.008 65.3465 206.622 69.7961 203.274C73.7745 200.283 74.7022 195.643 79.4726 195.803C85.8048 196.017 90.6985 193.213 93.5593 195.235C96.842 197.566 95.3912 201.391 100.176 202.706Z" fill="#063963"/>
<path d="M75.5647 216.858C70.0135 211.117 72.3882 227.733 74.9911 223.238C76.675 220.667 75.5647 216.858 75.5647 216.858Z" fill="#FDBAB9"/>
</svg>
