<svg width="106" height="32" viewBox="0 0 106 32" fill="none" xmlns="http://www.w3.org/2000/svg">
<mask id="mask0_217_1924" style="mask-type:alpha" maskUnits="userSpaceOnUse" x="0" y="0" width="106" height="32">
<rect width="106" height="32" fill="#919EAB"/>
</mask>
<g mask="url(#mask0_217_1924)">
<path fill-rule="evenodd" clip-rule="evenodd" d="M32.4164 8.93806C32.6878 9.0917 33.1083 9.2088 33.5226 9.24586C33.7579 9.26671 34.2489 9.25333 34.4867 9.21935C35.2996 9.10303 35.9724 8.76408 36.6022 8.1531C37.1957 7.57738 37.534 7.00424 37.6369 6.39995C37.6811 6.13924 37.6658 5.77096 37.6015 5.55709C37.4704 5.12086 37.1313 4.63907 36.7578 4.35906C36.3629 4.06284 35.8964 3.95655 35.251 4.01574C34.2011 4.112 33.2378 4.59584 32.4244 5.43484C31.9884 5.88445 31.7325 6.3266 31.6364 6.79629C31.5891 7.02637 31.5844 7.48756 31.6268 7.73C31.6808 8.04192 31.7876 8.31241 31.9331 8.51032C32.0347 8.6475 32.2665 8.85313 32.4164 8.93806ZM80.8496 26.4145C81.8692 27.3716 83.1625 27.8853 84.8255 27.9945C85.0754 28.0107 86.1188 27.9888 86.3851 27.961C88.4494 27.7507 90.1607 26.9799 91.6587 25.585C92.6288 24.6822 93.499 23.4865 94.0288 22.3284C94.6212 21.0346 94.9275 19.6739 94.9697 18.1493C95.0157 16.478 94.6228 15.0141 93.8293 13.8997C93.5003 13.4373 93.056 12.966 92.6985 12.6992C92.1051 12.257 91.3961 11.9464 90.6259 11.7912C90.0803 11.6813 89.6153 11.645 88.9304 11.6592C87.3207 11.6918 85.9188 12.0264 84.5903 12.6945C83.4244 13.2813 82.4768 14.0253 81.4787 15.1395C81.0119 15.6604 80.7183 16.0359 80.39 16.5323C79.5766 17.761 79.1018 19.055 78.9599 20.4314C78.9057 20.9535 78.9069 21.6981 78.9625 22.2211L78.9731 22.3214L78.5668 22.4949C76.5712 23.3468 74.8731 23.8092 73.1404 23.9727C72.7266 24.0113 71.8478 24.0267 71.6064 23.9999C70.9763 23.9284 70.4712 23.704 70.0629 23.3128C69.9357 23.191 69.731 22.9561 69.7527 22.9561C69.7879 22.9561 70.3358 22.8475 70.6317 22.7821C72.7935 22.3044 74.695 21.3746 76.2373 20.0422C77.5508 18.9075 78.3603 17.8348 78.717 16.7565C78.877 16.2729 78.9245 15.9466 78.9095 15.437C78.8956 14.9521 78.8131 14.5048 78.664 14.1023C78.207 12.868 77.1809 12.1615 75.5402 11.9513C74.6757 11.8406 73.504 11.889 72.5084 12.0768C70.0717 12.537 67.9039 13.8774 66.0862 16.0469C65.4643 16.7894 64.9965 17.499 64.6046 18.2932C64.0301 19.4577 63.7574 20.5469 63.7264 21.8062C63.7166 22.1958 63.7388 22.8282 63.7672 22.9473C63.7737 22.9769 63.7434 23.0037 63.6083 23.0902C63.3751 23.2394 63.1412 23.3588 62.9714 23.4155C62.8329 23.4618 62.8158 23.4633 62.5563 23.4541C62.2493 23.443 62.0955 23.4093 61.9187 23.3161C61.6786 23.1882 61.5811 22.9862 61.5356 22.5209C61.478 21.9336 61.5499 21.4801 62.0399 19.3265C62.4302 17.6125 62.5729 16.7475 62.6194 15.8199C62.684 14.5267 62.4136 13.6146 61.7631 12.9323C61.3408 12.4886 60.7357 12.2297 59.9489 12.1551C59.6765 12.1294 59.1327 12.1427 58.8122 12.1831C57.4809 12.3509 56.2594 12.9501 55.1035 14.0022C54.8161 14.2637 54.3387 14.7529 54.0932 15.0378C53.9655 15.1858 53.7818 15.367 53.5789 15.5446L53.2628 15.8212L53.2511 15.4491C53.2263 14.6744 53.111 14.1249 52.8663 13.6167C52.7424 13.3546 52.5744 13.1155 52.3695 12.9099C51.8252 12.3646 51.0291 12.1106 49.9694 12.1438C48.8317 12.1795 47.6885 12.5051 46.658 13.0867C46.4512 13.2036 45.9837 13.5129 45.7803 13.6679C45.054 14.2207 44.4021 14.8968 43.9377 15.5783C43.8707 15.6766 43.8157 15.7471 43.8157 15.7353C43.8157 15.7234 43.8299 15.6349 43.8467 15.5386C43.894 15.2689 43.8891 14.6175 43.8374 14.2842C43.7423 13.6717 43.5376 13.1428 43.2026 12.6436C42.8777 12.1595 42.4851 11.8764 41.9845 11.7654C41.9085 11.7485 41.765 11.7369 41.6237 11.7361C41.4252 11.7348 41.3698 11.741 41.2644 11.7757C41.0238 11.855 40.7402 12.0205 40.3745 12.2941C39.8922 12.6554 39.5456 12.9617 38.3843 14.0524C37.4345 14.9446 36.6428 15.6794 36.4864 15.8145C36.4304 15.8632 36.3836 15.9079 36.3825 15.9141C36.3815 15.9229 37.258 16.9284 37.3647 17.0411C37.3838 17.0617 37.4316 17.0347 37.6469 16.8821C38.168 16.5127 38.5436 16.284 38.7227 16.2258C38.9801 16.1424 39.1848 16.3097 39.2101 16.6244C39.2212 16.7621 39.1874 17.3355 39.1411 17.7985C39.084 18.3704 38.9873 19.0372 38.7992 20.1616C38.7015 20.7448 38.5958 21.4201 38.5647 21.6621C38.5335 21.904 38.5045 22.1199 38.5001 22.142C38.4854 22.2174 37.6139 22.884 37.2114 23.1277C36.9892 23.2626 36.7072 23.3957 36.5715 23.4309C36.3368 23.4919 35.991 23.4525 35.7496 23.3383C35.6477 23.2899 35.5805 23.2399 35.4782 23.1375C35.2058 22.8647 35.0791 22.4951 35.0533 21.8981C35.0429 21.6603 35.0458 21.6348 35.1528 20.9705C35.4756 18.9747 35.7697 17.3206 36.0574 15.8871C36.2125 15.1148 36.2399 14.9526 36.2541 14.7133C36.3045 13.8781 36.1347 13.1495 35.7599 12.5885C35.3484 11.9731 34.7524 11.6993 33.8925 11.7307C33.6625 11.7394 33.5816 11.7497 33.4487 11.7883C32.7615 11.9888 31.9427 12.5712 30.5353 13.8606C30.1934 14.1738 29.8755 14.4644 29.829 14.5066L29.7442 14.5828L29.7323 14.4345C29.609 12.896 29.0432 12.0022 27.9722 11.6537C27.1844 11.3974 25.9474 11.4548 25.0365 11.7899C24.6209 11.943 24.1477 12.2125 23.7925 12.4987C23.5798 12.6701 23.2201 13.0386 23.0381 13.2715C22.5362 13.9142 22.1529 14.6543 21.8262 15.6125C21.7719 15.7721 21.7295 15.9118 21.7323 15.9226C21.7354 15.9352 21.8055 15.9172 21.9197 15.8742C22.3265 15.7214 22.6837 15.6544 23.0908 15.6544C23.4385 15.6544 23.5853 15.682 23.8037 15.789C24.0738 15.9213 24.2467 16.1409 24.3392 16.4695C24.3661 16.5665 24.3718 16.6515 24.3712 16.9727C24.3705 17.3047 24.3645 17.3852 24.3294 17.5466C24.1888 18.1931 23.7925 19.0375 23.1386 20.0865C22.3452 21.3586 21.7667 21.9876 21.362 22.0185C21.2723 22.0249 21.2418 22.0185 21.1423 21.9696C20.7724 21.7882 20.425 21.0665 20.1126 19.8296C19.85 18.7899 19.6814 17.8896 19.2834 15.3927C19.1307 14.4356 19.0854 14.2006 18.9854 13.8485C18.5667 12.3749 17.7939 11.68 16.6303 11.7312C16.1679 11.7513 15.7735 11.9065 15.1506 12.3139C14.5677 12.6948 14.0627 13.104 13.1917 13.901C12.5556 14.4813 11.9166 15.0584 11.2747 15.6323C10.9909 15.885 10.9568 15.9213 10.9787 15.9468C11.1276 16.137 11.2754 16.328 11.4222 16.5197C11.6905 16.8679 11.8487 17.0589 11.8627 17.0512C11.8743 17.0442 11.9751 16.9755 12.0862 16.898C12.4843 16.6208 12.9487 16.3233 13.1098 16.2425C13.2638 16.1661 13.2798 16.1612 13.3791 16.1712C13.6238 16.1957 13.9128 16.4214 14.1433 16.7683C14.4434 17.2192 14.7872 18.0513 15.0487 18.9585C15.331 19.9879 15.6107 21.018 15.8877 22.0489C16.4072 23.9739 16.6807 24.9548 16.7355 25.095C17.3845 26.7519 18.133 27.6599 19.0345 27.8838C19.2387 27.9348 19.6429 27.9376 19.9146 27.8897C21.3692 27.6349 23.0185 26.3903 24.9404 24.0977C25.922 22.926 27.0655 21.3643 27.814 20.1709C28.4935 19.0877 29.0823 17.9131 29.3505 17.1057L29.3989 16.96L29.7276 16.7258C30.1135 16.4512 30.2712 16.3496 30.4702 16.2479C30.6046 16.1792 30.6263 16.1735 30.7512 16.1751C31.1962 16.1813 31.4549 16.5514 31.4601 17.1886C31.4617 17.3834 31.4557 17.4182 31.3603 17.7906C31.2391 18.2636 31.0406 18.9914 30.7512 20.0278C30.3482 21.4693 30.1745 22.1696 30.0044 23.0374C29.7455 24.3595 29.7126 25.2126 29.8936 25.9114C29.9874 26.2743 30.0908 26.5121 30.2769 26.7931C30.7442 27.4988 31.4622 27.8442 32.4635 27.8442C33.1427 27.8442 33.9106 27.7124 34.6126 27.4754C35.8827 27.0466 37.0791 26.2951 38.398 25.0978C38.4901 25.0142 38.5681 24.9493 38.5717 24.9532C38.5927 25.0116 38.6111 25.0708 38.627 25.1308C38.7769 25.6548 39.0351 26.1461 39.3344 26.4768C39.7749 26.9635 40.4146 27.3202 41.2083 27.5209C41.7441 27.6565 42.2233 27.7142 42.9573 27.7304C43.4479 27.7415 43.4608 27.7412 43.4479 27.7078C43.3551 27.4671 43.2595 27.0098 43.2132 26.5864C43.1269 25.7968 43.1261 24.5978 43.2117 23.756C43.3696 22.2007 43.8242 20.6764 44.557 19.2462C45.2155 17.9602 45.8423 17.1978 46.4293 16.9675C46.5461 16.9217 46.5998 16.9119 46.7668 16.9055C46.9046 16.9001 47.0059 16.9063 47.0976 16.9256C47.5502 17.0213 47.8053 17.3111 47.9152 17.8541C47.949 18.0204 47.9436 18.6427 47.9059 18.9762C47.8384 19.5692 47.7363 20.0893 47.5249 20.9167C47.2961 21.8116 47.191 22.4228 47.138 23.1633C47.0609 24.238 47.1248 24.9612 47.3561 25.6308C47.7397 26.7421 48.6195 27.3626 50.1734 27.6185C50.6027 27.6892 50.9958 27.7199 51.6192 27.7312C52.1793 27.7417 52.1948 27.7412 52.1839 27.7078C52.178 27.689 52.1364 27.5683 52.0917 27.4401C51.996 27.1652 51.9144 26.7774 51.8707 26.3888C51.8322 26.0452 51.827 24.9854 51.8622 24.6096C52.0307 22.8125 52.6518 21.0637 53.7838 19.2009C54.6044 17.8505 55.3331 17.0898 55.9614 16.9274C56.1131 16.8882 56.4189 16.898 56.5388 16.9464C56.8769 17.0818 57.0666 17.3757 57.1436 17.8845C57.1782 18.1143 57.1782 18.6085 57.1428 18.9456C57.0836 19.5141 56.9216 20.3958 56.7362 21.1556C56.3891 22.5839 56.3046 23.0019 56.2064 23.7832C56.042 25.0896 56.1247 25.9991 56.4685 26.6683C56.7675 27.2509 57.2932 27.6257 58.0175 27.7718C58.5377 27.8774 59.2819 27.8632 59.9766 27.7345C61.4175 27.4684 62.8724 26.7169 64.2743 25.5148L64.5302 25.2955L64.615 25.4422C64.7426 25.6549 64.8829 25.8599 65.035 26.056C65.1864 26.2485 65.6579 26.7061 65.8564 26.8538C66.6496 27.444 67.6302 27.7873 68.8372 27.8985C69.3797 27.9484 70.2657 27.9368 71.0205 27.8699C73.3797 27.6619 75.7162 26.9434 77.9863 25.7276C78.3324 25.5426 79.1473 25.0765 79.4174 24.9092C79.5399 24.8333 79.6459 24.7715 79.6526 24.7715C79.6599 24.7715 79.7007 24.8418 79.7433 24.9282C79.9966 25.4373 80.4347 26.0254 80.8496 26.4145ZM88.972 22.1508C88.1522 23.5107 87.1925 24.2612 86.1056 24.3924C85.7378 24.4364 85.4099 24.4063 85.1878 24.3075C84.8922 24.1762 84.6192 23.8787 84.4088 23.46C84.108 22.8606 83.9901 22.2234 84.0385 21.4564C84.1289 20.0229 84.5339 18.749 85.3029 17.4809C85.8965 16.5024 86.5306 15.8714 87.2969 15.498C87.7001 15.3011 88.1157 15.1917 88.5882 15.1582C89.0048 15.1284 89.2036 15.1801 89.4222 15.3744C89.6282 15.5579 89.7818 15.8294 89.9322 16.2785C90.0976 16.7714 90.1715 17.2141 90.1875 17.8086C90.2268 19.2735 89.8115 20.7585 88.972 22.1508ZM69.3326 21.2381C71.0048 20.5726 72.5163 19.3944 73.4093 18.0604C73.6874 17.6448 73.8632 17.2508 73.9185 16.9185C73.9451 16.761 73.9319 16.463 73.8913 16.2942C73.8593 16.1596 73.7768 15.9912 73.7014 15.9058C73.6261 15.8209 73.4892 15.7362 73.3542 15.6922C73.2193 15.6477 72.8394 15.6387 72.6639 15.6757C71.9177 15.833 71.1829 16.4015 70.4437 17.3949C69.6406 18.4735 69.2018 19.4911 69.1005 20.51C69.0741 20.7725 69.0756 21.321 69.1028 21.321C69.1142 21.3212 69.2175 21.2837 69.3326 21.2381Z" fill="#212B36"/>
</g>
</svg>
