<svg width="106" height="32" viewBox="0 0 106 32" fill="none" xmlns="http://www.w3.org/2000/svg">
<mask id="mask0_217_1921" style="mask-type:alpha" maskUnits="userSpaceOnUse" x="0" y="0" width="106" height="32">
<rect width="106" height="32" fill="#919EAB"/>
</mask>
<g mask="url(#mask0_217_1921)">
<path d="M28.6454 3H10.2773C8.99733 3 7.97333 4.024 7.97333 5.304V26.296C7.97333 27.576 8.99733 28.6 10.2773 28.6H28.6454C29.9254 28.6 30.9494 27.576 30.9494 26.296V5.304C30.9494 4.024 29.9254 3 28.6454 3ZM29.6694 26.296C29.6694 26.872 29.2214 27.32 28.6454 27.32H10.2773C9.70133 27.32 9.25333 26.872 9.25333 26.296V5.304C9.25333 4.728 9.70133 4.28 10.2773 4.28H28.6454C29.2214 4.28 29.6694 4.728 29.6694 5.304V26.296ZM13.7333 24.76L16.6133 22.2L13.7333 19.64V24.76ZM24.1014 14.392C23.5893 13.88 22.6293 13.24 21.0293 13.24C19.3013 13.24 17.5093 13.688 16.2293 14.136V6.84H13.7333V17.912L15.5253 17.08C15.5253 17.08 18.4693 15.736 21.0293 15.736C22.3093 15.736 22.6293 16.44 22.6293 17.08V24.76H25.1894V17.08C25.1894 16.888 25.1894 15.48 24.1014 14.392ZM20.7093 11H23.2693C24.4214 9.656 24.9974 8.312 25.1894 6.84H22.6293C22.3733 8.312 21.7333 9.656 20.7093 11ZM91.4294 17.016V11.32H93.9894V16.952C93.9894 18.232 94.4374 18.872 95.4614 18.872C96.4855 18.872 96.8694 18.296 96.8694 16.952V11.32H99.3655V17.016C99.3655 19.512 98.1495 20.984 95.3975 20.984C92.6454 20.984 91.4294 19.512 91.4294 17.016ZM80.6774 11.384H83.2374V14.84L85.8614 11.384H88.8054L85.6054 15.096L89.0614 20.856H86.1814L83.9414 17.08L83.2374 17.912V20.856H80.6774V11.384ZM68.5174 16.056C68.5174 12.6 70.8854 11.128 73.1894 11.128C75.4934 11.128 77.8614 12.6 77.8614 16.056C77.8614 19.512 75.4934 20.984 73.1894 20.984C70.8854 20.984 68.5174 19.576 68.5174 16.056ZM75.2374 16.056C75.2374 14.328 74.4694 13.24 73.1254 13.24C71.7814 13.24 71.0134 14.328 71.0134 16.056C71.0134 17.784 71.7814 18.936 73.1254 18.936C74.4694 18.936 75.2374 17.848 75.2374 16.056ZM58.2134 11.384H61.9254C64.3574 11.384 65.8294 12.216 65.8294 14.456C65.8294 15.928 65.1894 16.824 63.9734 17.208L65.9574 20.856H63.2694L61.4134 17.592H60.7094V20.856H58.2134V11.384ZM61.8614 15.608C62.8854 15.608 63.3974 15.288 63.3974 14.52C63.3974 13.752 62.9494 13.432 61.8614 13.432H60.7734V15.608H61.8614ZM48.4214 11.384H55.2054V13.496H50.9814V15.032H53.9894V17.016H50.9814V18.744H55.3974V20.792H48.4214V11.384ZM36.8374 11.384H39.3974V14.904H42.5334V11.384H45.0934V20.856H42.5334V17.016H39.3974V20.856H36.8374V11.384Z" fill="#212B36"/>
</g>
</svg>
