<svg width="106" height="32" viewBox="0 0 106 32" fill="none" xmlns="http://www.w3.org/2000/svg">
<mask id="mask0_217_1912" style="mask-type:alpha" maskUnits="userSpaceOnUse" x="0" y="0" width="106" height="32">
<rect width="106" height="32" fill="#919EAB"/>
</mask>
<g mask="url(#mask0_217_1912)">
<path d="M23.1069 3C16.0377 3 10.3067 8.73085 10.3067 15.8001C10.3067 22.8696 16.0377 28.6 23.1069 28.6C30.1769 28.6 35.9073 22.8696 35.9073 15.8001C35.9073 8.73131 30.1769 3.00061 23.1068 3.00061L23.1069 3ZM28.977 21.4614C28.9224 21.5509 28.8507 21.6287 28.7659 21.6905C28.6812 21.7522 28.5851 21.7967 28.4831 21.8212C28.3812 21.8458 28.2754 21.85 28.1719 21.8336C28.0683 21.8173 27.969 21.7806 27.8796 21.7258C24.8742 19.8901 21.0908 19.4743 16.6352 20.4923C16.4289 20.5392 16.2124 20.5023 16.0333 20.3897C15.8542 20.277 15.7271 20.0979 15.68 19.8916C15.6566 19.7895 15.6535 19.6837 15.671 19.5804C15.6885 19.4771 15.7262 19.3782 15.7819 19.2895C15.8377 19.2007 15.9104 19.1238 15.9958 19.0632C16.0813 19.0026 16.1779 18.9595 16.2801 18.9363C21.1561 17.8223 25.3386 18.3019 28.7126 20.3639C29.0886 20.5947 29.2078 21.0854 28.977 21.4614ZM30.5438 17.9761C30.2549 18.4456 29.6404 18.5939 29.1712 18.305C25.7305 16.1902 20.4857 15.5777 16.416 16.813C15.8882 16.9724 15.3308 16.675 15.1706 16.1481C15.0941 15.8948 15.1213 15.6215 15.246 15.3882C15.3708 15.1549 15.583 14.9806 15.8361 14.9035C20.4848 13.4929 26.2639 14.1762 30.2151 16.6042C30.6844 16.8931 30.8326 17.5076 30.5438 17.9762V17.9761ZM30.6783 14.3468C26.5528 11.8964 19.7463 11.6711 15.8075 12.8666C15.175 13.0584 14.5061 12.7013 14.3145 12.0688C14.2223 11.7649 14.2546 11.4369 14.4042 11.1568C14.5539 10.8768 14.8087 10.6676 15.1125 10.5753C19.634 9.20271 27.1505 9.4679 31.9002 12.2876C32.0355 12.3676 32.1538 12.4736 32.2481 12.5995C32.3425 12.7253 32.411 12.8685 32.4499 13.0209C32.4888 13.1733 32.4973 13.3319 32.4748 13.4876C32.4524 13.6432 32.3994 13.7929 32.319 13.9281C31.9827 14.497 31.246 14.6846 30.6789 14.3468H30.6783ZM45.1319 14.8163C42.9217 14.2893 42.5288 13.9194 42.5288 13.1421C42.5288 12.4078 43.2197 11.9137 44.2484 11.9137C45.245 11.9137 46.2324 12.2889 47.2688 13.0614C47.2993 13.0848 47.3391 13.0941 47.3773 13.088C47.3965 13.0853 47.415 13.0786 47.4315 13.0685C47.4481 13.0583 47.4624 13.0449 47.4736 13.029L48.5527 11.5079C48.574 11.4777 48.583 11.4405 48.5779 11.404C48.5728 11.3674 48.554 11.3342 48.5252 11.311C47.2917 10.3216 45.9038 9.84056 44.2805 9.84056C41.8945 9.84056 40.2269 11.2726 40.2269 13.3216C40.2269 15.5188 41.6652 16.2968 44.1506 16.8974C46.2645 17.3845 46.6222 17.7926 46.6222 18.5221C46.6222 19.3306 45.9007 19.8335 44.7391 19.8335C43.449 19.8335 42.3959 19.3979 41.2189 18.3799C41.1896 18.3551 41.1518 18.3425 41.1134 18.3447C41.0737 18.3478 41.0385 18.3661 41.0141 18.3952L39.8035 19.835C39.7531 19.8962 39.7592 19.9848 39.8173 20.0368C41.1868 21.2596 42.8712 21.9047 44.6902 21.9047C47.2611 21.9047 48.9226 20.4999 48.9226 18.3249C48.9272 16.4896 47.8282 15.4731 45.1365 14.8183L45.1319 14.8163ZM54.7401 12.6367C53.6258 12.6367 52.7118 13.0757 51.9567 13.9752V12.9627C51.9569 12.9244 51.9418 12.8876 51.9149 12.8604C51.8879 12.8332 51.8513 12.8178 51.813 12.8176H49.8336C49.7541 12.8176 49.6899 12.8828 49.6899 12.9627V24.2127C49.6899 24.2922 49.7541 24.3579 49.8336 24.3579H51.813C51.8925 24.3579 51.9567 24.2922 51.9567 24.2127V20.662C52.7118 21.5072 53.6258 21.9215 54.7401 21.9215C56.8113 21.9215 58.9084 20.3272 58.9084 17.2795C58.9114 14.2312 56.8143 12.6365 54.7417 12.6365L54.7401 12.6367ZM56.6064 17.2795C56.6064 18.8308 55.6511 19.9145 54.2816 19.9145C52.9288 19.9145 51.9078 18.7819 51.9078 17.2795C51.9078 15.777 52.9288 14.6447 54.2816 14.6447C55.6282 14.6445 56.6064 15.7524 56.6064 17.2794V17.2795ZM64.2811 12.6367C61.6139 12.6367 59.5244 14.6904 59.5244 17.3127C59.5244 19.9069 61.6001 21.9383 64.249 21.9383C66.9254 21.9383 69.021 19.8916 69.021 17.2795C69.021 14.6763 66.9392 12.637 64.2811 12.637V12.6367ZM64.2811 19.9298C62.8626 19.9298 61.7927 18.7895 61.7927 17.2788C61.7927 15.7611 62.826 14.6598 64.249 14.6598C65.6766 14.6598 66.7527 15.7996 66.7527 17.3119C66.7527 18.8293 65.7133 19.9298 64.2811 19.9298ZM74.7163 12.8176H72.5381V10.5912C72.5382 10.5723 72.5346 10.5535 72.5274 10.5359C72.5202 10.5184 72.5097 10.5025 72.4963 10.489C72.483 10.4755 72.4671 10.4648 72.4496 10.4575C72.4322 10.4502 72.4134 10.4464 72.3945 10.4463H70.415C70.3356 10.4463 70.2698 10.5114 70.2698 10.5912V12.8176H69.3191C69.2396 12.8176 69.1754 12.8828 69.1754 12.9627V14.6635C69.1754 14.7433 69.2396 14.8085 69.3191 14.8085H70.2698V19.2099C70.2698 20.9875 71.1548 21.8894 72.9019 21.8894C73.6112 21.8894 74.1996 21.7426 74.7545 21.4278C74.8003 21.4033 74.8279 21.3544 74.8279 21.3024V19.6822C74.8279 19.6333 74.8019 19.5859 74.7591 19.5599C74.7383 19.5466 74.7143 19.539 74.6896 19.5379C74.6649 19.5369 74.6404 19.5423 74.6184 19.5538C74.2378 19.7449 73.8695 19.8335 73.4568 19.8335C72.8224 19.8335 72.5381 19.5446 72.5381 18.8996V14.8093H74.7163C74.7958 14.8093 74.8599 14.7442 74.8599 14.6642V12.9636C74.8606 12.9446 74.8574 12.9257 74.8505 12.908C74.8436 12.8903 74.8332 12.8742 74.8199 12.8607C74.8066 12.8471 74.7907 12.8364 74.7732 12.8291C74.7556 12.8219 74.7368 12.8183 74.7178 12.8186L74.7163 12.8176ZM82.3038 12.8264V12.5529C82.3038 11.7484 82.6126 11.3897 83.3035 11.3897C83.7162 11.3897 84.0478 11.4716 84.4193 11.5954C84.4651 11.6098 84.5125 11.6026 84.5492 11.5753C84.5678 11.5618 84.5829 11.5441 84.5933 11.5237C84.6037 11.5032 84.609 11.4805 84.6088 11.4576V9.78996C84.6092 9.75882 84.5994 9.7284 84.5809 9.70333C84.5624 9.67826 84.5363 9.65989 84.5064 9.65102C84.1151 9.53439 83.6137 9.41471 82.8617 9.41471C81.0351 9.41471 80.0676 10.444 80.0676 12.3903V12.8091H79.1169C79.0374 12.8091 78.9717 12.8742 78.9717 12.954V14.6635C78.9717 14.7433 79.0374 14.8085 79.1169 14.8085H80.0676V21.5959C80.0676 21.6769 80.1333 21.7411 80.2128 21.7411H82.1907C82.2717 21.7411 82.3359 21.6769 82.3359 21.5959V14.809H84.1839L87.0147 21.5959C86.6937 22.3082 86.3773 22.4503 85.9463 22.4503C85.5978 22.4503 85.2294 22.3464 84.8549 22.14C84.8194 22.1221 84.7785 22.1183 84.7403 22.1293C84.702 22.1431 84.67 22.1706 84.6547 22.2073L83.9837 23.6793C83.9515 23.7496 83.9791 23.8306 84.0463 23.8673C84.7464 24.2463 85.3777 24.4084 86.1587 24.4084C87.62 24.4084 88.4286 23.7266 89.1393 21.8955L92.5724 13.0244C92.5813 13.0025 92.5846 12.9787 92.5819 12.9552C92.5792 12.9316 92.5707 12.9092 92.5571 12.8898C92.5442 12.8704 92.5267 12.8545 92.5061 12.8435C92.4856 12.8325 92.4627 12.8268 92.4394 12.8268H90.3789C90.3163 12.8268 90.2613 12.8661 90.2414 12.924L88.1305 18.9516L85.8194 12.9201C85.8091 12.8927 85.7907 12.8692 85.7666 12.8525C85.7426 12.8359 85.7141 12.8269 85.6849 12.8268H82.3038V12.8264ZM77.9048 12.8176H75.9253C75.8458 12.8176 75.7801 12.8828 75.7801 12.9627V21.5959C75.7801 21.6769 75.8458 21.7411 75.9253 21.7411H77.9048C77.9842 21.7411 78.05 21.6769 78.05 21.5959V12.9633C78.05 12.9442 78.0463 12.9253 78.039 12.9077C78.0317 12.8901 78.021 12.8741 78.0075 12.8606C77.994 12.8471 77.978 12.8364 77.9604 12.8292C77.9427 12.8219 77.9238 12.8182 77.9048 12.8183V12.8176ZM76.9265 8.88646C76.1424 8.88646 75.5065 9.5211 75.5065 10.3051C75.5065 11.0895 76.1424 11.7249 76.9265 11.7249C77.7106 11.7249 78.345 11.0895 78.345 10.3051C78.345 9.52125 77.7091 8.88646 76.9265 8.88646ZM94.2629 15.5936C93.4803 15.5936 92.8704 14.9646 92.8704 14.2008C92.8704 13.437 93.4879 12.8008 94.2705 12.8008C95.0531 12.8008 95.663 13.4297 95.663 14.1928C95.663 14.9566 95.0455 15.5936 94.2629 15.5936ZM94.2705 12.9393C93.5567 12.9393 93.0172 13.5064 93.0172 14.2008C93.0172 14.8949 93.5537 15.4543 94.2629 15.4543C94.9767 15.4543 95.5163 14.8877 95.5163 14.1928C95.5163 13.4987 94.9798 12.9393 94.2705 12.9393ZM94.5793 14.3361L94.9737 14.8876H94.6404L94.2858 14.3816H93.9817V14.8876H93.7035V13.4257H94.3546C94.6955 13.4257 94.9186 13.5995 94.9186 13.892C94.9202 14.1317 94.7811 14.2781 94.5808 14.3361H94.5793ZM94.3439 13.6765H93.9817V14.1389H94.3439C94.5243 14.1389 94.6328 14.0504 94.6328 13.9075C94.6328 13.7571 94.5243 13.6765 94.3439 13.6765Z" fill="#212B36"/>
</g>
</svg>
