<svg width="106" height="32" viewBox="0 0 106 32" fill="none" xmlns="http://www.w3.org/2000/svg">
<mask id="mask0_217_1915" style="mask-type:alpha" maskUnits="userSpaceOnUse" x="0" y="0" width="106" height="32">
<rect width="106" height="32" fill="#919EAB"/>
</mask>
<g mask="url(#mask0_217_1915)">
<path d="M40.3606 13.0418C40.3606 10.5001 42.2138 8.72532 45.5816 8.72532C47.6365 8.72532 49.318 9.38142 50.229 10.0241C50.3594 10.1159 50.592 10.3385 50.4525 10.7526C50.2738 11.1986 49.946 11.8693 49.7108 12.3049C49.574 12.5588 49.2244 12.5254 49.0453 12.4346C48.3964 12.1058 47.3321 11.5495 46.3544 11.447C46.1068 11.42 45.8577 11.4092 45.6087 11.4147C44.7476 11.4339 44.0282 11.7329 43.7749 12.3899C43.7253 12.5142 43.6976 12.6461 43.6931 12.7799C43.6694 13.6456 44.8742 13.9587 46.3338 14.2094C49.0472 14.6743 51.1001 15.4698 51.1001 18.2626C51.1001 20.6344 49.2151 22.7778 45.5219 22.7121C43.0872 22.6629 41.3599 21.8402 40.4344 21.0419C40.4028 21.0148 40.0505 20.656 40.2393 20.2244C40.4555 19.6688 40.8203 19.0321 41.1066 18.694C41.2658 18.4769 41.6858 18.4424 41.9042 18.5777C42.6672 19.0518 43.9228 19.8121 45.3701 19.8625C45.4844 19.8664 45.5976 19.8671 45.7087 19.8642C47.0106 19.8326 47.7983 19.339 47.7818 18.5074C47.7678 17.7748 46.7355 17.3469 45.0917 17.0371C42.4701 16.5432 40.3606 15.6791 40.3606 13.0418ZM64.178 16.6609C62.3292 16.6851 60.6342 17.1904 60.5853 18.6352C60.5848 19.7817 61.5148 20.3448 62.8201 20.2711C64.0723 20.1505 65.0272 19.6074 65.448 18.8868C65.6035 18.6198 65.6272 17.6204 65.6178 17.1933C65.6154 17.1024 65.4356 16.9304 65.3569 16.8973C64.9641 16.7318 64.6735 16.681 64.178 16.6609ZM58.0264 10.8392C58.8909 10.0656 60.605 8.86151 63.3368 8.92498C66.9418 8.99994 68.8463 10.69 69.0237 14.7329C69.0967 16.4002 68.9756 21.0507 68.9468 22.2093C68.9425 22.3756 68.8863 22.4905 68.6623 22.4948C68.0686 22.5186 66.697 22.5092 66.0668 22.5009C65.7488 22.4855 65.7119 22.3277 65.7078 22.1625C65.7051 22.0545 65.6958 21.734 65.6891 21.4728C65.6855 21.3342 65.5553 21.3382 65.5221 21.3737C64.6764 22.2766 63.2915 22.7126 61.8188 22.7126C59.5803 22.7126 57.3487 21.3958 57.3556 18.788C57.3624 16.1173 59.2561 14.8 61.3364 14.4894C62.6685 14.2911 64.1701 14.4674 65.3071 14.9192C65.3799 14.9484 65.5284 14.9062 65.5296 14.8031C65.5342 14.4628 65.5178 13.8142 65.4524 13.5068C65.2855 12.7236 64.6322 12.0935 63.2596 11.9236C62.9769 11.8888 62.6923 11.8773 62.4074 11.9C61.3163 11.9857 60.0033 12.8365 59.4595 13.155C59.3316 13.2298 59.1312 13.1751 59.0664 13.0916C58.7491 12.6816 57.9515 11.4826 57.8887 11.291C57.8259 11.1 57.9147 10.9398 58.0264 10.8392ZM70.2124 15.8108C70.1909 12.0861 72.7862 8.94385 77.0003 8.91623C79.6298 8.89908 81.5402 10.0912 81.877 10.6535C81.9455 10.7855 81.9103 10.8958 81.863 11.0288C81.6403 11.4988 81.0781 12.4068 80.6774 12.9214C80.5067 13.1406 80.3214 12.9528 80.1062 12.8096C79.5087 12.4116 78.3736 11.925 77.2564 11.925C75.2296 11.9254 73.7203 13.3151 73.7371 15.8719C73.7529 18.3254 75.1985 19.6738 77.2634 19.7227C78.3429 19.7498 79.3887 19.1294 79.9513 18.6211C80.128 18.4669 80.3108 18.5441 80.5127 18.7019C80.9089 19.1069 81.4772 19.7321 81.7923 20.1625C81.9987 20.4016 81.8443 20.6356 81.77 20.7296C80.9151 21.8114 79.264 22.7219 77.0788 22.7342C72.5035 22.7663 70.2335 19.5488 70.2124 15.8108ZM92.0527 22.5663C92.2674 22.5502 94.5592 22.2339 95.2627 22.0728C95.4373 22.033 95.4994 21.8862 95.4018 21.7407C95.009 21.1517 93.9762 19.479 92.8945 17.9815C91.8997 16.6047 90.8511 15.3937 90.512 14.9278C90.4293 14.8146 90.4338 14.7031 90.5238 14.6153C91.169 13.984 93.8675 11.3382 94.882 10.2456C95.2748 9.82053 95.039 9.63768 94.7054 9.53836C94.0609 9.34625 93.0186 9.1068 92.4258 8.98176C92.1758 8.92892 91.8748 8.94745 91.6563 9.17215C90.6418 10.1181 87.5459 13.2254 86.6217 14.1542C86.4553 14.3218 86.3584 14.2846 86.3576 14.0451C86.35 12.2543 86.3147 4.58737 86.2507 3.32629C86.2462 3.15956 86.0457 3.03298 85.9327 3.02697C85.3515 2.99661 83.8834 2.98786 83.3048 3.02183C83.1428 3.04018 82.9879 3.20536 82.9738 3.34499C82.8403 5.36147 83.0304 20.164 83.1096 22.2347C83.1153 22.3845 83.2268 22.5006 83.369 22.509C83.9462 22.5424 85.3738 22.5402 86.0404 22.5277C86.3684 22.5277 86.4085 22.2972 86.4085 22.2972L86.4579 18.3251C86.4579 18.3251 86.4917 18.1484 86.5464 18.0901C86.7814 17.8371 87.4315 17.1403 87.7087 16.871C87.7752 16.8064 87.8802 16.811 87.9482 16.9024C88.2775 17.3467 89.2166 18.791 90.0871 20.0808C90.887 21.2658 91.6336 22.3174 91.6858 22.3917C91.8062 22.5632 91.9467 22.5696 92.0527 22.5663ZM53.0756 22.5526C53.2771 22.5593 54.8063 22.5575 55.4838 22.5567C55.712 22.5611 55.8305 22.3884 55.838 22.2359C55.982 19.3326 55.9204 5.50985 55.8295 3.32715C55.8219 3.13847 55.7411 3.06762 55.6123 3.05047C55.0308 2.9726 53.3783 2.99078 52.8486 3.12937C52.745 3.1563 52.684 3.23504 52.6807 3.33624C52.551 8.96237 52.6385 21.9334 52.6659 22.179C52.6932 22.425 52.8215 22.544 53.0756 22.5526Z" fill="#212B36"/>
<path d="M12.1499 16.78C11.2075 16.7872 10.4092 16.2256 10.1149 15.3491C10.1039 15.316 10.0938 15.2826 10.0843 15.2491C9.76358 14.1266 10.3855 12.9523 11.5003 12.5763L29.3804 6.586C29.5927 6.52459 29.8124 6.4925 30.0334 6.49063C31.0009 6.48309 31.8211 7.05702 32.1227 7.95206L32.1494 8.03851C32.4839 9.20765 31.6528 10.2512 30.6571 10.5857C30.6564 10.5862 30.4753 10.6475 12.8761 16.6563C12.6422 16.736 12.397 16.7778 12.1499 16.78Z" fill="#212B36"/>
<path d="M15.13 25.5734C14.1803 25.5802 13.3792 25.0265 13.0883 24.1626C13.0773 24.1297 13.067 24.0966 13.0575 24.0632C12.7322 22.9274 13.3535 21.7407 14.4721 21.3642L32.3529 15.3191C32.5839 15.2419 32.8225 15.2024 33.0625 15.2002C34.0148 15.193 34.8515 15.7748 35.1467 16.6486L35.1742 16.7395C35.3469 17.3434 35.2448 18.0222 34.9014 18.5579C34.6455 18.9562 33.8383 19.3068 33.8383 19.3068L15.8896 25.4439C15.6448 25.5267 15.3885 25.5702 15.13 25.5734Z" fill="#212B36"/>
<path d="M30.0148 25.6116C29.5514 25.6161 29.0984 25.4737 28.7208 25.205C28.3432 24.9362 28.0603 24.5548 27.9128 24.1154L21.9453 6.38965L21.9154 6.29016C21.5921 5.15979 22.2139 3.9807 23.3283 3.60505C23.5513 3.5301 23.7818 3.49099 24.0139 3.48893C24.3587 3.48636 24.6923 3.56406 25.0066 3.71929C25.2654 3.8473 25.4964 4.02522 25.6862 4.24282C25.8761 4.46042 26.021 4.71341 26.1127 4.98723L32.0797 22.7114L32.097 22.7684C32.4322 23.942 31.8118 25.1218 30.6974 25.4974C30.4772 25.5709 30.2469 25.6095 30.0148 25.6116Z" fill="#212B36"/>
<path d="M21.1445 28.5972C20.6808 28.6016 20.2275 28.4591 19.8498 28.1901C19.472 27.9211 19.1891 27.5395 19.0416 27.0998L13.0756 9.3747C12.9832 9.10125 12.9456 8.81225 12.965 8.52425C12.9844 8.23624 13.0604 7.95489 13.1887 7.6963C13.3169 7.43772 13.495 7.20697 13.7125 7.01727C13.9301 6.82757 14.1829 6.68265 14.4566 6.59079C14.6771 6.5171 14.9077 6.47844 15.1401 6.47621C15.6037 6.47164 16.0568 6.61395 16.4345 6.88273C16.8121 7.15152 17.095 7.53299 17.2426 7.97246L23.2087 25.6982C23.3012 25.9718 23.3387 26.2609 23.3193 26.5491C23.2998 26.8372 23.2237 27.1187 23.0953 27.3773C22.9668 27.636 22.7886 27.8668 22.5708 28.0565C22.3531 28.2461 22.1 28.391 21.8261 28.4826C21.6061 28.5564 21.3765 28.5952 21.1445 28.5972Z" fill="#212B36"/>
<path d="M27.073 21.6198L31.2339 20.1972L29.8737 16.1577L25.7079 17.5654L27.073 21.6198Z" fill="#212B36"/>
<path d="M18.2164 24.648L22.377 23.2255L21.0065 19.1551L16.8418 20.5634L18.2164 24.648Z" fill="#212B36"/>
<path d="M24.1104 12.821L28.2717 11.4003L26.9274 7.40794L22.7585 8.8047L24.1104 12.821Z" fill="#212B36"/>
<path d="M15.253 15.8451L19.4142 14.4244L18.0535 10.3811L13.8845 11.7777L15.253 15.8451Z" fill="#212B36"/>
</g>
</svg>
